<svg width="7" height="7" viewBox="0 0 7 7" fill="none" xmlns="http://www.w3.org/2000/svg">
<path d="M6.72125 5.40668C7.08485 5.77028 7.08485 6.35846 6.72125 6.72099C6.53945 6.90279 6.30418 7.0001 6.05822 7.0001C5.82295 7.0001 5.58768 6.91455 5.40588 6.72099L3.50232 4.8292L1.59877 6.72099C1.41697 6.90279 1.1817 7.0001 0.935735 7.0001C0.700465 7.0001 0.4545 6.90279 0.2727 6.72099C-0.0909 6.35846 -0.0909 5.77028 0.2727 5.39598L2.17625 3.50313L0.2727 1.5985C-0.0909 1.23597 -0.0909 0.637102 0.2727 0.273502C0.6363 -0.0911673 1.22448 -0.0911673 1.59877 0.273502L3.50232 2.17599L5.39518 0.273502C5.76948 -0.0911673 6.35765 -0.0911673 6.72125 0.273502C7.08485 0.637102 7.08485 1.23597 6.72125 1.5985L4.8177 3.50313L6.72125 5.40668Z" fill="white"/>
</svg>
